# AST/ASF file generated using VICON BodyLanguage
# -----------------------------------------------
:version 1.10
:name VICON
:units
  mass 1.0
  length 0.45
  angle deg
:documentation
   .ast/.asf automatically generated from VICON data using
   VICON BodyBuilder and BodyLanguage model FoxedUp or BRILLIANT.MOD
:root
   order TX TY TZ RX RY RZ
   axis XYZ
   position 0 0 0  
   orientation 0 0 0 
:bonedata
  begin
     id 1 
     name lhipjoint
     direction 0.623415 -0.642378 0.445763 
     length 2.49859 
     axis 0 0 0  XYZ
  end
  begin
     id 2 
     name lfemur
     direction 0.34202 -0.939693 0  
     length 6.69689  
     axis 0 0 20  XYZ
    dof rx ry rz
    limits (-160.0 20.0)
           (-70.0 70.0)
           (-60.0 70.0)
  end
  begin
     id 3 
     name ltibia
     direction 0.34202 -0.939693 0   
     length 7.37574   
     axis 0 0 20   XYZ
    dof rx
    limits (-10.0 170.0)
  end
  begin
     id 4 
     name lfoot
     direction 0.084323 -0.231675 0.969132   
     length 2.09111   
     axis -90 7.62852e-016 20   XYZ
    dof rx rz
    limits (-45.0 90.0)
           (-70.0 20.0)
  end
  begin
     id 5 
     name ltoes
     direction 1.5357e-011 -4.21957e-011 1   
     length 1.04989   
     axis -90 7.62852e-016 20   XYZ
    dof rx
    limits (-90.0 20.0)
  end
  begin
     id 6 
     name rhipjoint
     direction -0.605402 -0.653903 0.45376   
     length 2.45455  
     axis 0 0 0  XYZ 
  end
  begin
     id 7 
     name rfemur
     direction -0.34202 -0.939693 0   
     length 6.64523   
     axis 0 0 -20   XYZ
    dof rx ry rz
    limits (-160.0 20.0)
           (-70.0 70.0)
           (-70.0 60.0)
  end
  begin
     id 8 
     name rtibia
     direction -0.34202 -0.939693 0   
     length 7.3339   
     axis 0 0 -20   XYZ
    dof rx
    limits (-10.0 170.0)
 end
 begin
     id 9 
     name rfoot
     direction -0.120854 -0.332043 0.93549   
     length 2.23135  
     axis -90 -7.62852e-016 -20   XYZ
    dof rx rz
    limits (-45.0 90.0)
           (-20.0 70.0)
  end
  begin
     id 10 
     name rtoes
     direction -1.53563e-011 -4.21914e-011 1   
     length 1.10614   
     axis -90 -7.62852e-016 -20   XYZ
    dof rx
    limits (-90.0 20.0)
  end
  begin
     id 11 
     name lowerback
     direction 0.0319682 0.998615 -0.0417941   
     length 2.02718   
     axis 0 0 0   XYZ
    dof rx ry rz
    limits (-20.0 45.0)
           (-30.0 30.0)
           (-30.0 30.0)
  end
  begin
     id 12 
     name upperback
     direction 7.63181e-005 0.995808 0.0914691   
     length 1.97539   
     axis 0 0 0   XYZ
    dof rx ry rz
    limits (-20.0 45.0)
           (-30.0 30.0)
           (-30.0 30.0)
  end
  begin
     id 13 
     name thorax
     direction -0.016423 0.993627 0.111514   
     length 2.00349   
     axis 0 0 0   XYZ
    dof rx ry rz
    limits (-20.0 45.0)
           (-30.0 30.0)
           (-30.0 30.0)
  end
  begin
     id 14 
     name lowerneck
     direction -0.174763 0.981668 -0.0760716   
     length 1.71436   
     axis 0 0 0   XYZ
    dof rx ry rz
    limits (-20.0 45.0)
           (-30.0 30.0)
           (-30.0 30.0)
  end
  begin
     id 15 
     name upperneck
     direction 0.345458 0.934587 -0.0848868   
     length 1.72805   
     axis 0 0 0   XYZ
    dof rx ry rz
    limits (-20.0 45.0)
           (-30.0 30.0)
           (-30.0 30.0)
  end
  begin
     id 16
     name head
     direction 0.13001 0.989848 -0.0574291  
     length 1.767  
     axis 0 0 0   XYZ
    dof rx ry rz
    limits (-20.0 45.0)
           (-30.0 30.0)
           (-30.0 30.0)
  end
  begin
     id 17 
     name lclavicle
     direction 0.952951 0.290122 0.0878234  
     length 3.54654  
     axis 0 0 0   XYZ
    dof ry rz
    limits (-20.0 10.0)
           (0.0 20.0)
  end
  begin
     id 18 
     name lhumerus
     direction 1 -4.48957e-011 -4.56525e-028   
     length 5.19807   
     axis 180 -30 -90   XYZ
    dof rx ry rz
    limits (-60.0 90.0)
           (-90.0 90.0)
           (-90.0 90.0)
  end
  begin
     id 19
     name lradius
     direction 1 -4.48979e-011 -2.0317e-027   
     length 3.0937   
     axis 180 -30 -90   XYZ
    dof rx
    limits (-10.0 170.0)
  end
  begin
     id 20
     name lwrist
     direction 1 -4.48953e-011 -3.05809e-027   
     length 1.54685   
     axis 8.48514e-016 90 90   XYZ
    dof ry
    limits (-180.0 0.0)
 end
  begin
     id 21 
     name lhand
     direction 1 -4.48952e-011 -6.11639e-027   
     length 0.672632   
     axis 3.9013e-015 90 90   XYZ
    dof rx rz
    limits (-90.0 90.0)
           (-45.0 45.0)
  end
  begin
     id 22 
     name lfingers
     direction 1 -4.48925e-011 -1.22426e-026   
     length 0.542293   
     axis 7.80276e-015 90 90   XYZ
    dof rx
    limits (0.0 90.0)
  end
  begin
     id 23
     name lthumb
     direction 0.707107 -6.3486e-011 0.707107   
     length 0.778628   
     axis -90 45 5.37419e-014   XYZ
    dof rx rz
    limits (-45.0 45.0)
           (-45.0 45.0)
  end
  begin
     id 24 
     name rclavicle
     direction -0.960732 0.273675 -0.0457849   
     length 3.52079  
     axis 0 0 0   XYZ 
    dof ry rz
    limits (-10.0 20.0)
           (-20.0 0.0)
  end
  begin
     id 25 
     name rhumerus
     direction -1 -4.48976e-011 -1.63613e-027  
     length 5.45222   
     axis 180 30 90   XYZ
    dof rx ry rz
    limits (-90.0 60.0)
           (-90.0 90.0)
           (-90.0 90.0)
  end
  begin
     id 26 
     name rradius
     direction -1 -4.48957e-011 -7.00033e-028   
     length 3.01284   
     axis 180 30 90   XYZ
    dof rx
    limits (-10.0 170.0)
  end
  begin
     id 27 
     name rwrist
     direction -1 -4.48983e-011 -3.05543e-027   
     length 1.50642   
     axis 8.48514e-016 -90 -90   XYZ
    dof ry
    limits (-180.0 0.0)
  end
  begin
     id 28
     name rhand
     direction -1 -4.48984e-011 -6.11072e-027   
     length 0.622296   
     axis 3.9013e-015 -90 -90   XYZ
    dof rx rz
    limits (-90.0 90.0)
           (-45.0 45.0)
  end
  begin
     id 29
     name rfingers
     direction -1 -4.48865e-011 -1.22637e-026   
     length 0.501711   
     axis 7.80276e-015 -90 -90   XYZ
    dof rx
    limits (0.0 90.0)
  end
  begin
     id 30
     name rthumb
     direction -0.707107 -6.34932e-011 0.707107   
     length 0.72036   
     axis -90 -45 -5.37419e-014   XYZ
    dof rx rz
    limits (-45.0 45.0)
           (-45.0 45.0)
  end
:hierarchy
  begin
    root lhipjoint rhipjoint lowerback
    lhipjoint lfemur
    lfemur ltibia
    ltibia lfoot
    lfoot ltoes
    rhipjoint rfemur
    rfemur rtibia
    rtibia rfoot
    rfoot rtoes
    lowerback upperback
    upperback thorax
    thorax lowerneck lclavicle rclavicle
    lowerneck upperneck
    upperneck head
    lclavicle lhumerus
    lhumerus lradius
    lradius lwrist
    lwrist lhand lthumb
    lhand lfingers
    rclavicle rhumerus
    rhumerus rradius
    rradius rwrist
    rwrist rhand rthumb
    rhand rfingers
  end

#!OML:ASF H:\Not Pregnant\Project 1\Capture day 1\Session 1\non-pregnant.ASF
:FULLY-SPECIFIED
:DEGREES
179
root 3.28406 15.8433 16.6305 45.3853 -6.92859 -8.49577
lowerback 19.7086 -0.277506 5.49058
upperback 0.421418 1.28409 3.92989
thorax -10.6166 0.428815 0.843697
lowerneck 17.4616 -9.72719 -28.9231
upperneck -25.0893 -14.1291 49.3456
head -2.59829 -10.7691 31.7013
rclavicle -4.06515e-014 -3.84648e-014
rhumerus -26.2655 -7.64682 -70.7927
rradius 14.3127
rwrist 53.692
rhand -13.4226 -5.33132
rfingers 7.12502
rthumb 12.6858 -34.926
lclavicle -4.06515e-014 -3.84648e-014
lhumerus -39.467 -16.7157 88.5873
lradius 26.2841
lwrist 26.7886
lhand -36.4825 -36.4642
lfingers 7.12502
lthumb -9.57534 -6.70181
rfemur -68.537 3.88432 27.1852
rtibia 38.9738
rfoot -11.7058 8.86588
rtoes -20.0659
lfemur -73.6257 1.92884 -8.55879
ltibia 43.2792
lfoot -10.8133 -1.99821
ltoes -25.8706
180
root 3.29435 15.8099 16.5873 45.4601 -6.7239 -8.62562
lowerback 20.2187 -0.303612 5.75172
upperback 0.545016 1.34753 3.96582
thorax -10.7581 0.443367 0.718005
lowerneck 17.3887 -9.72235 -28.8962
upperneck -25.3286 -14.0499 49.3437
head -2.6989 -10.7245 31.7903
rclavicle -8.05078e-015 3.77691e-015
rhumerus -26.4722 -7.39733 -70.8473
rradius 14.3562
rwrist 53.8074
rhand -13.7265 -5.29787
rfingers 7.12502
rthumb 12.3928 -34.9105
lclavicle -8.05078e-015 3.77691e-015
lhumerus -39.9937 -17.2429 88.972
lradius 27.1219
lwrist 26.7873
lhand -37.591 -38.7563
lfingers 7.12502
lthumb -10.6448 -9.04588
rfemur -68.9659 3.80063 27.5231
rtibia 39.3507
rfoot -11.8995 8.81435
rtoes -19.87
lfemur -74.2868 1.79718 -8.18051
ltibia 43.967
lfoot -10.8292 -1.81515
ltoes -26.0754
181
root 3.3055 15.7753 16.5441 45.5337 -6.49779 -8.777
lowerback 20.7163 -0.33679 6.07459
upperback 0.668317 1.41761 4.00124
thorax -10.8896 0.457593 0.554334
lowerneck 17.3208 -9.72231 -28.8601
upperneck -25.575 -13.975 49.3448
head -2.80146 -10.6836 31.8812
rclavicle -2.59414e-014 -7.08667e-014
rhumerus -26.6977 -7.10872 -70.9276
rradius 14.426
rwrist 53.8241
rhand -14.1221 -5.25713
rfingers 7.12502
rthumb 12.0114 -34.8925
lclavicle -2.59414e-014 -7.08667e-014
lhumerus -40.5159 -17.6752 89.2904
lradius 27.9516
lwrist 26.4674
lhand -38.6587 -41.2155
lfingers 7.12502
lthumb -11.6745 -11.5608
rfemur -69.414 3.70332 27.8862
rtibia 39.7769
rfoot -12.1015 8.81034
rtoes -19.7557
lfemur -74.9621 1.6717 -7.77855
ltibia 44.6796
lfoot -10.8471 -1.63676
ltoes -26.2557
182
root 3.3168 15.7394 16.5001 45.6137 -6.27881 -8.93233
lowerback 21.188 -0.36783 6.41061
upperback 0.787277 1.49419 4.03259
thorax -11.0091 0.47391 0.376188
lowerneck 17.2601 -9.72278 -28.8235
upperneck -25.823 -13.9027 49.3459
head -2.90548 -10.6443 31.9759
rclavicle 1.68967e-015 -1.02374e-014
rhumerus -26.9444 -6.73644 -71.0503
rradius 14.5238
rwrist 53.6789
rhand -14.6239 -5.21228
rfingers 7.12502
rthumb 11.5275 -34.8753
lclavicle 1.68967e-015 -1.02374e-014
lhumerus -41.0172 -17.9862 89.5217
lradius 28.7338
lwrist 25.8486
lhand -39.6796 -43.6842
lfingers 7.12502
lthumb -12.6589 -14.0878
rfemur -69.898 3.60879 28.2346
rtibia 40.2386
rfoot -12.2821 8.85577
rtoes -19.6912
lfemur -75.6456 1.56691 -7.39014
ltibia 45.3829
lfoot -10.8531 -1.47276
ltoes -26.3981
183
root 3.32696 15.7019 16.456 45.6933 -6.12035 -9.06074
lowerback 21.6427 -0.37946 6.67822
upperback 0.900323 1.57972 4.04973
thorax -11.1247 0.497289 0.21752
lowerneck 17.2051 -9.7254 -28.7936
upperneck -26.0664 -13.8388 49.3474
head -3.00427 -10.6093 32.0706
rclavicle 2.19657e-014 1.74931e-014
rhumerus -27.2165 -6.24345 -71.231
rradius 14.651
rwrist 53.3149
rhand -15.235 -5.17481
rfingers 7.12502
rthumb 10.9381 -34.8699
lclavicle 2.19657e-014 1.74931e-014
lhumerus -41.4941 -18.1677 89.6591
lradius 29.4397
lwrist 24.9862
lhand -40.6861 -46.1113
lfingers 7.12502
lthumb -13.6291 -16.5775
rfemur -70.4448 3.55163 28.4893
rtibia 40.79
rfoot -12.4522 8.91813
rtoes -19.6578
lfemur -76.3344 1.48557 -7.06271
ltibia 46.1122
lfoot -10.8799 -1.2972
ltoes -26.5117
184
root 3.33499 15.6688 16.4101 45.8426 -6.0299 -9.14644
lowerback 21.99 -0.363766 6.83945
upperback 0.991438 1.66648 4.05454
thorax -11.2061 0.52704 0.104213
lowerneck 17.1524 -9.72538 -28.7789
upperneck -26.2949 -13.7805 49.3482
head -3.09487 -10.5758 32.1673
rclavicle -7.45443e-015 -3.65764e-014
rhumerus -27.5099 -5.60524 -71.4834
rradius 14.8058
rwrist 52.7119
rhand -15.9428 -5.16436
rfingers 7.12502
rthumb 10.2554 -34.8944
lclavicle -7.45443e-015 -3.65764e-014
lhumerus -41.9454 -18.2075 89.6914
lradius 30.0681
lwrist 23.9946
lhand -41.6414 -48.4676
lfingers 7.12502
lthumb -14.5497 -18.9978
rfemur -71.1435 3.5458 28.6319
rtibia 41.4569
rfoot -12.6187 8.97734
rtoes -19.6439
lfemur -77.0989 1.44583 -6.81504
ltibia 46.874
lfoot -10.9376 -1.11426
ltoes -26.6146
185
root 3.3425 15.6182 16.3609 46.1949 -6.03507 -9.21112
lowerback 22.0831 -0.299846 6.90108
upperback 1.03522 1.76794 4.03815
thorax -11.2006 0.57024 0.0189678
lowerneck 17.0958 -9.72309 -28.7749
upperneck -26.5072 -13.7253 49.3495
head -3.177 -10.5426 32.2646
rclavicle -3.8763e-015 -4.02539e-015
rhumerus -27.8191 -4.81186 -71.8201
rradius 14.9832
rwrist 51.8574
rhand -16.7005 -5.18516
rfingers 7.12502
rthumb 9.52437 -34.9499
lclavicle -3.8763e-015 -4.02539e-015
lhumerus -42.3737 -18.1147 89.6124
lradius 30.6635
lwrist 23.0396
lhand -42.497 -50.7995
lfingers 7.12502
lthumb -15.3739 -21.3911
rfemur -72.2023 3.60685 28.6876
rtibia 42.2734
rfoot -12.7498 9.08269
rtoes -19.6333
lfemur -78.1598 1.49936 -6.63991
ltibia 47.7256
lfoot -10.9837 -0.921008
ltoes -26.6977
186
root 3.34933 15.5511 16.3085 46.7248 -6.14133 -9.25105
lowerback 21.958 -0.189085 6.84707
upperback 1.03526 1.88104 3.99922
thorax -11.1255 0.626047 -0.0288585
lowerneck 17.0329 -9.71826 -28.7702
upperneck -26.6783 -13.6962 49.276
head -3.26563 -10.5036 32.4224
rclavicle -1.5704e-014 1.18277e-014
rhumerus -28.1384 -3.9032 -72.2318
rradius 15.1772
rwrist 50.802
rhand -17.4957 -5.20103
rfingers 7.12502
rthumb 8.757 -34.9994
lclavicle -1.5704e-014 1.18277e-014
lhumerus -42.8022 -17.917 89.4446
lradius 31.2801
lwrist 22.2539
lhand -43.1568 -53.0521
lfingers 7.12502
lthumb -16.0093 -23.6936
rfemur -73.5901 3.71867 28.671
rtibia 43.2396
rfoot -12.8592 9.24174
rtoes -19.6013
lfemur -79.4933 1.64648 -6.54872
ltibia 48.6829
lfoot -11.0334 -0.724028
ltoes -26.766
187
root 3.35732 15.4824 16.2513 47.4065 -6.31317 -9.30332
lowerback 21.6427 -0.048475 6.74884
upperback 1.0012 2.00474 3.94383
thorax -10.9838 0.690463 -0.0714763
lowerneck 16.9644 -9.70904 -28.7576
upperneck -26.8626 -13.6258 49.2683
head -3.34682 -10.4598 32.4835
rclavicle 1.92821e-014 -3.27001e-014
rhumerus -28.4574 -2.9082 -72.7144
rradius 15.3814
rwrist 49.5835
rhand -18.3151 -5.21346
rfingers 7.12502
rthumb 7.96621 -35.0433
lclavicle 1.92821e-014 -3.27001e-014
lhumerus -43.2487 -17.6334 89.2013
lradius 31.9847
lwrist 21.722
lhand -43.6303 -55.416
lfingers 7.12502
lthumb -16.4653 -26.0947
rfemur -75.2185 3.84653 28.6718
rtibia 44.3109
rfoot -12.9737 9.49107
rtoes -19.5378
lfemur -81.0294 1.88409 -6.49991
ltibia 49.7246
lfoot -11.1052 -0.524913
ltoes -26.8052
188
root 3.3665 15.4045 16.1898 48.2211 -6.51529 -9.38416
lowerback 21.1724 0.108648 6.63744
upperback 0.934044 2.13522 3.8844
thorax -10.7932 0.760065 -0.110333
lowerneck 16.8862 -9.69524 -28.7353
upperneck -27.0316 -13.5447 49.2477
head -3.4313 -10.4076 32.5247
rclavicle -1.67973e-014 3.84648e-014
rhumerus -28.7691 -1.86274 -73.2489
rradius 15.5863
rwrist 48.2484
rhand -19.1788 -5.19604
rfingers 7.12502
rthumb 7.13259 -35.0558
lclavicle -1.67973e-014 3.84648e-014
lhumerus -43.7318 -17.2856 88.9079
lradius 32.8145
lwrist 21.4296
lhand -43.8472 -57.8234
lfingers 7.12502
lthumb -16.6741 -28.5196
rfemur -77.0506 3.97046 28.747
rtibia 45.4406
rfoot -13.0703 9.84831
rtoes -19.4343
lfemur -82.7661 2.21943 -6.48375
ltibia 50.8353
lfoot -11.1799 -0.367202
ltoes -26.8269
